<svg width="40" height="40" viewBox="0 0 40 40" fill="none" xmlns="http://www.w3.org/2000/svg">
<path d="M14.1539 16.6154C16.092 16.6154 17.9507 15.8455 19.3212 14.475C20.6917 13.1046 21.4616 11.2458 21.4616 9.30769C21.4616 7.36957 20.6917 5.51083 19.3212 4.14037C17.9507 2.76992 16.092 2 14.1539 2C12.2158 2 10.357 2.76992 8.98657 4.14037C7.61611 5.51083 6.84619 7.36957 6.84619 9.30769C6.84619 11.2458 7.61611 13.1046 8.98657 14.475C10.357 15.8455 12.2158 16.6154 14.1539 16.6154Z" stroke="#fff" stroke-width="1.71429" stroke-linecap="round" stroke-linejoin="round"/>
<path d="M1 37.077H27.3077V35.4927C27.289 33.7255 26.9151 31.9801 26.2083 30.3603C25.5016 28.7405 24.4764 27.2794 23.1936 26.0637C21.9109 24.8481 20.3968 23.9027 18.7415 23.2839C17.0861 22.6651 15.3232 22.3855 13.5575 22.4616C10.1968 22.621 7.02426 24.0594 4.68964 26.4821C2.35501 28.9047 1.03501 32.1283 1 35.4927V37.077Z" stroke="#fff" stroke-width="1.71429" stroke-linecap="round" stroke-linejoin="round"/>
<path d="M25.8461 16.6154C27.7842 16.6154 29.6429 15.8455 31.0134 14.475C32.3838 13.1046 33.1538 11.2458 33.1538 9.30769C33.1538 7.36957 32.3838 5.51083 31.0134 4.14037C29.6429 2.76992 27.7842 2 25.8461 2" stroke="#fff" stroke-width="1.71429" stroke-linecap="round" stroke-linejoin="round"/>
<path d="M33.1538 37.0769H38.9999V35.4926C38.9688 32.5332 37.9427 29.6704 36.0869 27.365C34.2311 25.0596 31.6536 23.4457 28.7692 22.7831" stroke="#fff" stroke-width="1.71429" stroke-linecap="round" stroke-linejoin="round"/>
</svg>
