<svg width="253" height="66" viewBox="0 0 253 66" fill="none" xmlns="http://www.w3.org/2000/svg">
<path d="M38.0625 65H22.5V41.6562C22.5 39.3438 22.1875 37.8125 21.5625 37.0625C20.9375 36.3125 19.5625 35.9375 17.4375 35.9375V65H0.65625V0.5H12.5625C22.4375 0.5 28.7188 1.15625 31.4062 2.46875C35.8438 4.65625 38.0625 9.84375 38.0625 18.0312C38.0625 22.9062 37.5625 26.1562 36.5625 27.7812C35.375 29.7188 32.8125 30.9062 28.875 31.3438C32.875 32.4062 35.4688 34 36.6562 36.125C37.5938 37.8125 38.0625 41 38.0625 45.6875V65ZM22.5 20.0938V16.5312C22.5 14.8438 22.2812 13.6563 21.8438 12.9688C21.2188 12.0312 20 11.5625 18.1875 11.5625H17.4375V25.8125C19.625 25.8125 21 25.4688 21.5625 24.7812C22.1875 24.0312 22.5 22.4688 22.5 20.0938ZM75.75 46.7188C75.75 47.4688 75.75 48.0312 75.75 48.4062C75.75 50.9062 75.5938 52.9062 75.2812 54.4062C74.9688 55.8438 74.1875 57.5 72.9375 59.375C71.5 61.625 69.8438 63.1562 67.9688 63.9688C66.1562 64.7188 63.625 65.0938 60.375 65.0938C56.125 65.0938 52.6562 64.375 49.9688 62.9375C47.2812 61.4375 45.4062 59.0625 44.3438 55.8125C43.8438 54.375 43.5625 52.5938 43.5 50.4688C43.4375 48.3438 43.4062 46.7812 43.4062 45.7812V30.4062C43.4062 28.2188 43.4688 26.3438 43.5938 24.7812C43.7812 23.2188 44.1562 21.6875 44.7188 20.1875C45.7812 17.375 47.5312 15.3438 49.9688 14.0938C52.4688 12.7812 55.5938 12.125 59.3438 12.125C62.5938 12.125 65.3125 12.5938 67.5 13.5312C69.6875 14.4063 71.4688 15.875 72.8438 17.9375C73.9688 19.625 74.7188 21.6875 75.0938 24.125C75.5312 26.5625 75.75 29.375 75.75 32.5625V39.5938H57.8438V50.9375C57.8438 52.5625 57.9062 53.9062 58.0312 54.9688C58.1562 56.0312 58.8438 56.5625 60.0938 56.5625C61.1562 56.5625 61.875 56.0938 62.25 55.1562C62.6875 54.2188 62.9062 52.875 62.9062 51.125V44.75H75.75V46.7188ZM62.0625 30.875V27.125C62.0625 26.375 62.0625 25.8438 62.0625 25.5312C62.0625 23.6562 61.9375 22.375 61.6875 21.6875C61.4375 21 60.9062 20.6562 60.0938 20.6562C59.1562 20.6562 58.5312 20.9375 58.2188 21.5C57.9688 22.0625 57.8438 23.0625 57.8438 24.5V30.875H62.0625ZM93 36.125H80.9062V22.9062H93V36.125ZM93 65H80.9062V51.875H93V65ZM138 49.9062C138 55.5938 136.531 59.5312 133.594 61.7188C130.656 63.9062 125.562 65 118.312 65H98.9062V0.5H118.688C124.812 0.5 129.344 1.84375 132.281 4.53125C135.281 7.15625 136.781 11.2812 136.781 16.9062C136.781 21.5312 136.344 24.5938 135.469 26.0938C134.406 27.9062 131.906 29.25 127.969 30.125C131.906 31.0625 134.562 32.5625 135.938 34.625C137.312 36.625 138 39.7188 138 43.9062V49.9062ZM121.125 17.6562C121.125 14.8438 120.781 13.125 120.094 12.5C119.406 11.875 117.938 11.5625 115.688 11.5625V25.8125C116.5 25.8125 117.062 25.8125 117.375 25.8125C119.062 25.8125 120.094 25.375 120.469 24.5C120.906 23.625 121.125 21.3438 121.125 17.6562ZM121.125 47.9375V41.8438C121.125 39.0938 120.844 37.4375 120.281 36.875C119.781 36.25 118.25 35.9375 115.688 35.9375V53.8438C118 53.8438 119.469 53.5312 120.094 52.9062C120.781 52.2188 121.125 50.5625 121.125 47.9375ZM175.781 43.625C175.781 44.4375 175.781 45.0312 175.781 45.4062C175.781 46.8438 175.781 48.2812 175.781 49.7188C175.656 52.0938 175.281 54.1562 174.656 55.9062C173.594 59.0938 171.75 61.4375 169.125 62.9375C166.5 64.375 163.125 65.0938 159 65.0938C158.25 65.0938 157.719 65.0938 157.406 65.0938C155.031 65.0938 153.156 64.9688 151.781 64.7188C150.406 64.4688 149.062 63.8438 147.75 62.8438C145.562 61.2188 144.125 59.0938 143.438 56.4688C142.812 53.7812 142.5 50.0938 142.5 45.4062V31.9062C142.5 30.7812 142.5 29.6875 142.5 28.625C142.5 27.5625 142.594 26.4375 142.781 25.25C143.406 20.75 145.031 17.4062 147.656 15.2188C150.344 12.9688 154 11.8438 158.625 11.8438C167.062 11.8438 172.438 14.9062 174.75 21.0312C175.188 22.0938 175.469 23.5 175.594 25.25C175.719 27 175.781 28.8125 175.781 30.6875V43.625ZM161.25 53.75V26.6562C161.25 26.0938 161.25 25.6875 161.25 25.4375C161.25 23.3125 161.094 21.9688 160.781 21.4062C160.469 20.8438 159.906 20.5625 159.094 20.5625C158.031 20.5625 157.406 21.125 157.219 22.25C157.031 23.3125 156.938 24.375 156.938 25.4375C156.938 26 156.938 26.4062 156.938 26.6562V52.0625C156.938 53.5 157.062 54.625 157.312 55.4375C157.625 56.1875 158.219 56.5625 159.094 56.5625C160.531 56.5625 161.25 55.625 161.25 53.75ZM213.75 65H199.219V28.3438C199.219 27.4688 199.219 26.8125 199.219 26.375C199.219 23.9375 199.125 22.375 198.938 21.6875C198.75 20.9375 198.156 20.5625 197.156 20.5625C195.969 20.5625 195.281 21.25 195.094 22.625C194.906 23.9375 194.812 25.4688 194.812 27.2188C194.812 28.0938 194.812 28.7812 194.812 29.2812V65H180.375V12.125H195.188L194.812 17C196.938 13.4375 200 11.6562 204 11.6562C205.5 11.6562 206.781 11.8125 207.844 12.125C208.969 12.375 209.969 12.9375 210.844 13.8125C212.156 15.1875 212.969 16.875 213.281 18.875C213.594 20.8125 213.75 23.8438 213.75 27.9688V65ZM252.188 65H237.75V61.1562C236.312 62.6562 234.875 63.6875 233.438 64.25C232.062 64.8125 230.406 65.0938 228.469 65.0938C226.656 65.0938 225.031 64.8125 223.594 64.25C222.156 63.6875 221.031 62.7812 220.219 61.5312C219.656 60.5312 219.25 59.3125 219 57.875C218.812 56.375 218.719 54.625 218.719 52.625C218.719 51.875 218.719 51.3125 218.719 50.9375V26.1875C218.719 22.6875 218.875 20.0625 219.188 18.3125C219.5 16.5 220.375 14.9375 221.812 13.625C222.25 13.25 222.781 12.9688 223.406 12.7812C224.094 12.5313 225.031 12.4062 226.219 12.4062C227.281 12.4062 228.062 12.4062 228.562 12.4062C230.812 12.4062 232.594 12.5938 233.906 12.9688C235.219 13.2813 236.5 14.125 237.75 15.5V0.5H252.188V65ZM237.75 49.9062V25.4375C237.75 23.5625 237.625 22.2812 237.375 21.5938C237.125 20.9062 236.469 20.5625 235.406 20.5625C233.906 20.5625 233.156 21.6875 233.156 23.9375V51.3125C233.156 53.3125 233.25 54.6875 233.438 55.4375C233.625 56.1875 234.219 56.5625 235.219 56.5625C236.531 56.5625 237.281 55.8438 237.469 54.4062C237.656 52.9688 237.75 51.4688 237.75 49.9062Z" fill="black"/>
</svg>
