<svg width="42" height="35" viewBox="0 0 42 35" fill="none" xmlns="http://www.w3.org/2000/svg">
<path d="M37.8571 1H4.07143C3.25684 1 2.47561 1.3236 1.8996 1.8996C1.3236 2.47561 1 3.25684 1 4.07143V30.1786C1 30.9932 1.3236 31.7744 1.8996 32.3504C2.47561 32.9264 3.25684 33.25 4.07143 33.25H37.8571C38.6717 33.25 39.453 32.9264 40.029 32.3504C40.605 31.7744 40.9286 30.9932 40.9286 30.1786V4.07143C40.9286 3.25684 40.605 2.47561 40.029 1.8996C39.453 1.3236 38.6717 1 37.8571 1Z" stroke="#2859C5" stroke-width="1.71429" stroke-linecap="round" stroke-linejoin="round"/>
<path d="M1 4.83923L18.9986 15.6629C19.5514 15.9885 20.2456 16.1636 20.9643 16.1636C21.683 16.1636 22.3771 15.9885 22.93 15.6629L40.9286 4.83923" stroke="#2859C5" stroke-width="1.71429" stroke-linecap="round" stroke-linejoin="round"/>
</svg>
