<svg width="37" height="37" viewBox="0 0 37 37" fill="none" xmlns="http://www.w3.org/2000/svg">
<path d="M36.1429 18.3231V18.3292V34.1538C36.1429 34.6814 35.9334 35.1873 35.5604 35.5603C35.1873 35.9333 34.6814 36.1429 34.1539 36.1429H22C21.3688 36.1429 20.8571 35.6312 20.8571 35V24.5C20.8571 23.1982 19.8018 22.1429 18.5 22.1429C17.1982 22.1429 16.1429 23.1982 16.1429 24.5V35C16.1429 35.6312 15.6312 36.1429 15 36.1429H2.84622C2.3187 36.1429 1.81279 35.9333 1.43978 35.5603C1.06676 35.1873 0.857208 34.6814 0.857208 34.1538L0.857228 18.3292L0.857188 18.3234C0.85532 18.0474 0.910946 17.7739 1.02053 17.5205C1.13 17.2674 1.29092 17.0397 1.49307 16.8521C1.49327 16.8519 1.49347 16.8517 1.49367 16.8516L17.7252 1.88072C18.1629 1.47702 18.8372 1.47702 19.2749 1.88072L35.5067 16.8518C35.5068 16.8519 35.5069 16.8519 35.5069 16.852C35.7093 17.0395 35.8703 17.2672 35.9798 17.5204C36.0894 17.7737 36.1449 18.0471 36.1429 18.3231Z" stroke="#2859C5" stroke-width="1.71429" stroke-linecap="round" stroke-linejoin="round"/>
</svg>
