<svg width="37" height="37" viewBox="0 0 37 37" fill="none" xmlns="http://www.w3.org/2000/svg">
<path d="M35.3572 27.4286V32.7143C35.3572 33.4152 35.0787 34.0875 34.5831 34.5831C34.0875 35.0787 33.4152 35.3572 32.7143 35.3572H27.4286" stroke="#2859C5" stroke-width="1.71429" stroke-linecap="round" stroke-linejoin="round"/>
<path d="M27.4286 1H32.7143C33.4152 1 34.0875 1.27844 34.5831 1.77407C35.0787 2.26971 35.3572 2.94193 35.3572 3.64286V8.92857" stroke="#2859C5" stroke-width="1.71429" stroke-linecap="round" stroke-linejoin="round"/>
<path d="M1 8.92857V3.64286C1 2.94193 1.27844 2.26971 1.77407 1.77407C2.26971 1.27844 2.94193 1 3.64286 1H8.92857" stroke="#2859C5" stroke-width="1.71429" stroke-linecap="round" stroke-linejoin="round"/>
<path d="M8.92857 35.3572H3.64286C2.94193 35.3572 2.26971 35.0787 1.77407 34.5831C1.27844 34.0875 1 33.4152 1 32.7143V27.4286" stroke="#2859C5" stroke-width="1.71429" stroke-linecap="round" stroke-linejoin="round"/>
<path d="M18.1785 16.8572C19.5804 16.8572 20.9248 16.3003 21.9161 15.309C22.9074 14.3178 23.4643 12.9733 23.4643 11.5715C23.4643 10.1696 22.9074 8.82518 21.9161 7.83392C20.9248 6.84265 19.5804 6.28577 18.1785 6.28577C16.7767 6.28577 15.4322 6.84265 14.441 7.83392C13.4497 8.82518 12.8928 10.1696 12.8928 11.5715C12.8928 12.9733 13.4497 14.3178 14.441 15.309C15.4322 16.3003 16.7767 16.8572 18.1785 16.8572Z" stroke="#2859C5" stroke-width="1.71429" stroke-linecap="round" stroke-linejoin="round"/>
<path d="M28.2294 28.7499C27.5463 26.6212 26.2049 24.7642 24.3986 23.4468C22.5923 22.1294 20.4143 21.4196 18.1786 21.4196C15.9429 21.4196 13.7649 22.1294 11.9586 23.4468C10.1523 24.7642 8.81091 26.6212 8.12781 28.7499H28.2294Z" stroke="#2859C5" stroke-width="1.71429" stroke-linecap="round" stroke-linejoin="round"/>
</svg>
